HIERARCHY
ROOT Hips
{
 OFFSET 0.000000 0.000000 0.000000
 CHANNELS 6 Xposition Yposition Zposition Yrotation Xrotation Zrotation
 JOINT Chest
 {
  OFFSET 0.000000 9.857222 0.000240
  CHANNELS 3 Yrotation Xrotation Zrotation
  JOINT Chest2
  {
   OFFSET 0.000000 10.876940 -0.000436
   CHANNELS 3 Yrotation Xrotation Zrotation
   JOINT Chest3
   {
    OFFSET 0.000000 9.827798 0.000000
    CHANNELS 3 Yrotation Xrotation Zrotation
    JOINT Chest4
    {
     OFFSET 0.000000 9.827798 0.000000
     CHANNELS 3 Yrotation Xrotation Zrotation
     JOINT Neck
     {
      OFFSET 0.000000 13.831992 0.000000
      CHANNELS 3 Yrotation Xrotation Zrotation
      JOINT Head
      {
       OFFSET 0.000000 9.147643 -0.001036
       CHANNELS 3 Yrotation Xrotation Zrotation
       End Site
       {
        OFFSET 0.000000 17.515799 -0.000541
       }
      }
     }
     JOINT RightCollar
     {
      OFFSET -3.001579 7.717577 0.000000
      CHANNELS 3 Yrotation Xrotation Zrotation
      JOINT RightShoulder
      {
       OFFSET -14.002642 0.000000 0.000000
       CHANNELS 3 Yrotation Xrotation Zrotation
       JOINT RightElbow
       {
        OFFSET -30.053852 0.000000 0.000000
        CHANNELS 3 Yrotation Xrotation Zrotation
        JOINT RightWrist
        {
         OFFSET -24.564923 0.000000 -0.000000
         CHANNELS 3 Yrotation Xrotation Zrotation
         End Site
         {
          OFFSET -18.334355 0.000000 0.000000
         }
        }
       }
      }
     }
     JOINT LeftCollar
     {
      OFFSET 3.001579 7.717577 0.000000
      CHANNELS 3 Yrotation Xrotation Zrotation
      JOINT LeftShoulder
      {
       OFFSET 14.002642 0.000000 0.000000
       CHANNELS 3 Yrotation Xrotation Zrotation
       JOINT LeftElbow
       {
        OFFSET 30.053852 0.000000 0.000000
        CHANNELS 3 Yrotation Xrotation Zrotation
        JOINT LeftWrist
        {
         OFFSET 24.564923 0.000000 -0.000000
         CHANNELS 3 Yrotation Xrotation Zrotation
         End Site
         {
          OFFSET 18.334355 0.000000 0.000000
         }
        }
       }
      }
     }
    }
   }
  }
 }
 JOINT RightHip
 {
  OFFSET -8.003235 -0.001175 -0.000120
  CHANNELS 3 Yrotation Xrotation Zrotation
  JOINT RightKnee
  {
   OFFSET 0.000000 -41.759727 0.000113
   CHANNELS 3 Yrotation Xrotation Zrotation
   JOINT RightAnkle
   {
    OFFSET 0.000000 -40.728748 0.000159
    CHANNELS 3 Yrotation Xrotation Zrotation
    JOINT RightToe
    {
     OFFSET 0.000000 -6.515296 14.732841
     CHANNELS 3 Yrotation Xrotation Zrotation
     End Site
     {
      OFFSET 0.000000 -1.502839 6.412115
     }
    }
   }
  }
 }
 JOINT LeftHip
 {
  OFFSET 8.003235 -0.001175 -0.000120
  CHANNELS 3 Yrotation Xrotation Zrotation
  JOINT LeftKnee
  {
   OFFSET 0.000000 -41.759727 0.000113
   CHANNELS 3 Yrotation Xrotation Zrotation
   JOINT LeftAnkle
   {
    OFFSET 0.000000 -40.728748 0.000159
    CHANNELS 3 Yrotation Xrotation Zrotation
    JOINT LeftToe
    {
     OFFSET 0.000000 -6.515296 14.732841
     CHANNELS 3 Yrotation Xrotation Zrotation
     End Site
     {
      OFFSET 0.000000 -1.502839 6.412115
     }
    }
   }
  }
 }
}
MOTION
Frames: 11
Frame Time: 0.016667
-8.551831 55.292384 -28.491428 47.531819 47.921892 -6.585506 6.208187 0.622290 -5.962497 1.230405 0.873150 -1.278855 1.230405 0.873150 -1.278855 0.924618 0.652295 -0.960885 -0.963136 2.311146 3.592545 -4.321604 -31.704033 8.180391 11.772016 1.947716 -1.297050 56.811659 27.016202 -37.985438 4.674926 -10.955290 -13.813284 -0.434186 -0.335455 -10.376558 -16.606311 2.091984 13.659939 -45.617032 6.813195 34.773650 -15.496658 -22.597111 16.464989 -0.035820 -1.381978 5.099163 -166.297139 -51.577629 165.803368 -91.053291 79.546398 -100.823696 0.002599 -11.146611 0.082341 0.154381 -2.349348 0.063487 -149.059078 -41.673315 -170.610016 -158.566969 64.708212 -174.145338 -3.786035 -15.240164 -0.349466 1.882527 0.022786 0.927094
-8.493387 56.409343 -28.148301 49.262367 47.376753 -6.048238 5.353738 1.124684 -5.407320 1.289775 0.805738 -1.386703 1.289775 0.805738 -1.386703 0.969149 0.601384 -1.041716 -1.153411 2.313052 3.702747 -4.790752 -31.674007 8.532326 11.613550 1.918191 -0.553459 56.609099 27.451356 -37.498535 4.850462 -10.893907 -13.934898 -0.421544 -0.536263 -10.221886 -16.770370 2.186503 14.136540 -45.603125 7.004903 34.838308 -15.896425 -22.748389 16.447030 0.051658 -1.488854 4.601240 -165.531841 -53.626673 163.672296 -83.970208 79.215962 -93.272656 0.196670 -11.733151 -0.140013 0.346377 -2.068489 0.057817 -149.237053 -43.504636 -172.231591 -158.120846 66.215739 -174.024414 -3.300193 -15.319398 -0.124050 1.183879 -0.003236 0.667137
-8.415539 57.702594 -27.930294 50.660885 47.642293 -5.270368 4.628346 0.774883 -5.381536 1.331751 0.726600 -1.470883 1.331751 0.726600 -1.470883 1.000556 0.541751 -1.104737 -1.310005 2.366315 3.770383 -5.154813 -31.554483 8.766164 11.545239 2.005238 0.117933 56.525229 27.679027 -37.131183 5.098715 -10.848558 -13.914612 -0.337137 -0.569840 -10.140059 -16.838892 2.428379 14.481212 -45.514721 7.272719 34.914387 -16.269532 -22.985705 16.422103 0.261841 -1.636003 4.177400 -165.668460 -55.102053 162.668243 -76.123486 78.173557 -84.883800 1.295066 -11.857262 -0.145518 0.217646 -1.994260 -0.085266 -149.961463 -45.128424 -173.033802 -159.669843 68.072281 -175.889515 -3.326550 -15.542602 0.063396 0.464122 0.043385 0.405548
-8.194050 59.043043 -27.737157 51.157283 47.788503 -4.782889 4.554003 0.387784 -5.696587 1.378114 0.656235 -1.536203 1.378114 0.656235 -1.536203 1.035232 0.488719 -1.153627 -1.447831 2.486429 3.819223 -5.457326 -31.314049 8.938497 11.468796 2.214167 0.725801 56.678507 27.772057 -36.704134 5.294310 -10.823759 -13.936213 -0.225733 -0.516407 -10.116731 -16.810628 2.814645 14.747373 -45.503679 7.503778 35.049389 -16.507885 -23.177989 16.208556 0.344565 -1.679875 4.121294 -165.532429 -56.829417 162.114679 -68.782327 76.528043 -77.217261 2.963163 -11.796816 0.171741 -0.175465 -1.922389 -0.335334 -150.220386 -47.068628 -173.528517 -162.497638 69.705847 -178.869216 -4.055764 -16.092684 -0.089338 0.254697 0.100579 0.369939
-7.810892 60.365351 -27.480715 51.309065 47.587036 -4.521792 4.725263 0.145940 -5.971189 1.417790 0.531839 -1.571769 1.417790 0.531839 -1.571769 1.064711 0.395238 -1.180059 -1.530228 2.736183 3.836485 -5.604358 -30.841907 8.990532 11.506024 2.667731 1.286406 57.187399 27.726169 -36.101307 5.419076 -10.681894 -13.954363 -0.216744 -0.499766 -10.151748 -16.660153 3.408795 14.817488 -45.746506 7.783588 35.164676 -16.467924 -23.175189 15.837116 0.178131 -1.470831 4.292808 -165.028328 -58.970506 161.433459 -63.237182 74.808002 -71.379016 4.562418 -11.886414 0.646633 -0.615509 -1.823291 -0.601177 -150.038300 -49.304943 -174.155906 -165.876563 71.047333 177.687739 -5.109850 -16.842283 -0.374159 0.303695 0.134079 0.438196
-7.289786 61.673839 -27.188207 51.806907 47.038511 -4.153893 4.686713 0.093081 -6.041356 1.462708 0.419387 -1.582824 1.462708 0.419387 -1.582824 1.098121 0.310757 -1.188125 -1.574659 3.047455 3.823413 -5.644291 -30.262624 8.946734 11.568342 3.211857 1.786277 57.901741 27.485163 -35.599513 5.445012 -10.301274 -13.661287 -0.253736 -0.525514 -10.183873 -16.493831 4.116474 14.732619 -46.257704 8.148675 35.256584 -16.055335 -22.829199 15.374876 0.018180 -1.459924 4.409003 -164.306140 -61.509540 160.236953 -59.036028 72.975907 -66.941648 6.285860 -12.192686 1.326794 -1.199305 -1.619964 -0.910791 -149.525660 -51.822001 -175.307886 -167.249035 72.290306 175.927338 -5.504413 -17.653938 -0.504673 0.317064 0.138744 0.475145
-6.673083 62.998168 -26.921708 52.509041 46.299406 -3.774141 4.500013 0.205144 -5.894223 1.466825 0.403224 -1.553834 1.466825 0.403224 -1.553834 1.101148 0.298693 -1.166346 -1.538628 3.279229 3.757623 -5.497036 -29.843485 8.756192 11.789368 3.499141 2.075797 58.613063 27.145103 -35.157766 5.341467 -9.617464 -13.112007 -0.204347 -0.566827 -10.048080 -16.309012 4.632719 14.467529 -46.949443 8.288331 35.358708 -15.612339 -22.296258 14.837156 -0.064400 -1.701409 4.389823 -163.011007 -64.257070 158.338760 -55.394828 71.203084 -63.128232 7.574158 -12.587892 2.030304 -1.627871 -1.389911 -1.126277 -148.635973 -54.495351 -176.967473 -166.523480 73.592673 175.986831 -5.466132 -18.471698 -0.422840 0.293032 0.127762 0.478282
-6.011962 64.311606 -26.585099 53.702230 44.996967 -3.487780 4.002627 0.710084 -5.244001 1.455350 0.468715 -1.497975 1.455350 0.468715 -1.497975 1.092663 0.347974 -1.124599 -1.460944 3.511753 3.680870 -5.258563 -29.427626 8.519476 11.995965 3.728217 2.214509 59.456602 26.720396 -34.584043 5.052914 -8.577946 -12.553336 -0.092435 -0.571666 -9.679596 -16.088642 5.070257 14.122801 -47.650522 8.244547 35.446776 -15.419626 -22.271663 14.228453 -0.140479 -1.624732 4.294741 -159.900307 -67.418277 154.342165 -52.114828 69.580225 -59.735032 8.070982 -13.107031 2.612441 -1.682678 -1.119175 -1.157784 -146.954637 -57.390632 -179.928748 -164.509142 74.997949 177.395796 -5.235310 -19.216960 -0.276682 0.238664 0.135341 0.453509
-5.329063 65.642215 -26.246276 54.861802 43.553327 -3.257077 3.498623 1.186016 -4.561591 1.427039 0.544278 -1.422480 1.427039 0.544278 -1.422480 1.071545 0.404892 -1.068130 -1.352151 3.827513 3.627690 -4.961577 -28.857835 8.304810 12.182658 4.132509 2.287401 60.272494 26.431961 -33.962309 4.724170 -7.573183 -12.106289 -0.011177 -0.545994 -9.441567 -15.746867 5.446955 13.736039 -48.548066 8.218555 35.287306 -15.206564 -22.204112 13.702007 -0.130359 -1.598453 4.187661 -155.081262 -70.545930 148.709728 -49.077075 67.851585 -56.668710 8.443900 -13.502301 3.155213 -1.638991 -0.908647 -1.127078 -144.517250 -60.342365 176.325765 -162.100411 76.489843 179.223991 -5.069278 -19.890620 -0.131887 0.194297 0.124807 0.414224
-4.653999 66.996418 -25.962953 55.728076 42.389721 -2.955874 3.113050 1.309678 -4.147100 1.367056 0.540742 -1.335599 1.367056 0.540742 -1.335599 1.026472 0.402573 -1.002908 -1.217398 4.258376 3.593392 -4.611789 -28.074865 8.103636 12.450482 4.767294 2.308336 60.928388 26.318045 -33.364109 4.622985 -6.970180 -11.720368 0.027371 -0.498324 -9.504006 -15.393577 5.954971 13.189669 -49.491244 8.335070 34.980375 -14.883015 -22.097882 13.231368 -0.106826 -1.561950 4.166582 -149.548033 -73.316790 142.591424 -46.452609 65.818774 -53.967315 9.202557 -13.600173 3.706225 -1.713297 -0.811086 -1.135632 -141.665495 -63.145519 172.404607 -161.255873 78.088692 179.421068 -5.208981 -20.479919 -0.042849 0.191651 0.090254 0.384012
-3.993571 68.336315 -25.676937 56.500867 41.303339 -2.671294 2.635697 1.334755 -3.699708 1.264946 0.474741 -1.212084 1.264946 0.474741 -1.212084 0.949650 0.353551 -0.910045 -1.050129 4.735935 3.494446 -4.158183 -27.212312 7.751637 12.763927 5.684035 2.141782 61.519399 26.370294 -32.844163 4.712775 -6.830354 -11.515648 0.110444 -0.364008 -9.574746 -15.139685 6.541938 12.237005 -50.296364 8.450696 34.629167 -14.547072 -21.735892 12.818519 -0.110591 -1.482912 4.162520 -142.061388 -75.761365 134.586918 -44.247892 63.646786 -51.643210 10.063123 -13.583363 4.217084 -1.807323 -0.750717 -1.152920 -138.032026 -65.766906 167.752280 -162.603118 79.763225 177.457220 -5.622787 -20.979344 -0.048340 0.207404 0.059807 0.352457
